<?xml version="1.0" encoding="UTF-8" standalone="no"?>
<!DOCTYPE svg PUBLIC "-//W3C//DTD SVG 1.1//EN" "http://www.w3.org/Graphics/SVG/1.1/DTD/svg11.dtd">
<svg width="100%" height="100%" viewBox="0 0 100 67" version="1.1" xmlns="http://www.w3.org/2000/svg" xmlns:xlink="http://www.w3.org/1999/xlink" xml:space="preserve" xmlns:serif="http://www.serif.com/" style="fill-rule:evenodd;clip-rule:evenodd;stroke-linejoin:round;stroke-miterlimit:2;">
    <g transform="matrix(0.849047,0,0,0.849047,7.54773,5.1937)">
        <path d="M47.204,65.006C46.433,66.056 45.246,66.61 44.042,66.61C43.233,66.61 42.421,66.36 41.717,65.847C39.971,64.56 39.596,62.114 40.875,60.368L45.362,54.301C46.646,52.564 49.096,52.185 50.842,53.472C52.596,54.747 52.971,57.201 51.679,58.943L47.204,65.006ZM43.767,53.176C45.05,51.435 44.671,48.981 42.929,47.693C41.175,46.41 38.729,46.793 37.442,48.539L32.971,54.576C31.683,56.322 32.067,58.781 33.812,60.064C35.55,61.343 38.008,60.972 39.292,59.222L43.767,53.176ZM35.85,47.393C37.137,45.656 36.754,43.197 35.004,41.914C33.263,40.635 30.808,41.014 29.529,42.756L25.017,48.843C23.733,50.589 24.146,52.989 25.888,54.276C27.642,55.56 30.054,55.231 31.337,53.485L35.85,47.393ZM27.942,41.618C29.225,39.872 28.854,37.422 27.096,36.139C25.35,34.851 22.9,35.231 21.617,36.976L17.138,43.022C15.854,44.764 16.233,47.222 17.979,48.501C19.725,49.781 22.179,49.41 23.458,47.66L27.942,41.618ZM100,6.46C100,6.46 93.521,7.714 88.887,8.456C79.946,9.889 71.621,6.722 62.383,1.947C60.529,0.993 58.396,0.006 56.308,0.006C54.387,0.006 52.504,0.876 50.925,2.668C45.233,9.114 41.925,14.814 35.154,18.768C31.817,20.718 35.737,26.826 42.904,24.314C46.562,23.031 50.137,20.585 54.179,17.326C57.354,14.764 59.262,15.143 62.008,17.889C67.167,23.047 84.525,40.185 84.525,40.185C90.012,36.801 94.617,34.718 99.996,32.718L99.996,6.46L100,6.46ZM56.15,59.218C55.492,61.131 53.575,63.389 52.179,65.281C53.417,66.26 54.712,66.672 55.854,66.672C58.842,66.672 60.804,63.876 58.112,61.181L56.15,59.218ZM83.258,44.789C78.8,40.393 63.542,25.343 59.079,20.985C58.392,20.314 57.325,20.235 56.546,20.801C53.883,22.735 47.871,26.989 44.279,28.251C37.258,30.71 31.3,27.326 30.021,22.589C29.221,19.622 30.408,16.71 33.05,15.168C37.25,12.714 39.954,9.439 43.283,5.322C40.387,3.076 37.658,2.272 34.987,2.272C27.879,2.272 21.167,7.964 12.754,7.401C7.033,7.026 0,5.722 0,5.722L0,32.11C6.15,33.447 10.229,34.043 16.333,37.106L18.258,34.506C19.775,32.439 22.212,31.206 24.775,31.206C28.4,31.206 31.533,33.614 32.529,36.989C36.492,36.989 39.475,39.497 40.437,42.768C43.879,42.639 47.275,44.931 48.342,48.539C53.221,48.539 56.746,52.372 56.596,56.901L61.462,61.768C62.992,63.301 65.475,63.297 67.008,61.768C68.542,60.235 68.542,57.751 67.008,56.218L59.983,49.189C59.067,48.272 60.454,46.885 61.371,47.801L69.837,56.272C71.371,57.806 73.85,57.806 75.383,56.272C76.917,54.739 76.917,52.26 75.383,50.726L64.962,40.301C64.042,39.393 65.433,37.997 66.35,38.914L77.6,50.168C79.133,51.701 81.612,51.701 83.146,50.168C84.637,48.685 84.65,46.326 83.258,44.789Z" style="fill:url(#_Linear1);fill-rule:nonzero;"/>
    </g>
    <defs>
        <linearGradient id="_Linear1" x1="0" y1="0" x2="1" y2="0" gradientUnits="userSpaceOnUse" gradientTransform="matrix(99.9998,0,0,99.9998,0,33.3389)"><stop offset="0" style="stop-color:rgb(255,165,82);stop-opacity:1"/><stop offset="1" style="stop-color:rgb(255,97,77);stop-opacity:1"/></linearGradient>
    </defs>
</svg>
