<?xml version="1.0" encoding="UTF-8" standalone="no"?>
<!DOCTYPE svg PUBLIC "-//W3C//DTD SVG 1.1//EN" "http://www.w3.org/Graphics/SVG/1.1/DTD/svg11.dtd">
<svg width="100%" height="100%" viewBox="0 0 100 101" version="1.1" xmlns="http://www.w3.org/2000/svg" xmlns:xlink="http://www.w3.org/1999/xlink" xml:space="preserve" xmlns:serif="http://www.serif.com/" style="fill-rule:evenodd;clip-rule:evenodd;stroke-linejoin:round;stroke-miterlimit:2;">
    <g transform="matrix(0.955111,0,0,0.955111,0,0.179847)">
        <path d="M11.743,20.531L4.697,20.531L4.697,18.182L11.743,18.182L11.743,20.531ZM30.531,34.622C26.647,34.622 23.486,37.783 23.486,41.668C23.486,45.552 26.647,48.714 30.531,48.714C34.416,48.714 37.577,45.552 37.577,41.668C37.577,37.783 34.416,34.622 30.531,34.622ZM56.365,22.879L56.365,62.805L0,62.805L0,22.879L13.927,22.879C15.498,22.879 16.964,22.095 17.835,20.787L21.137,15.834L39.926,15.834L43.228,20.787C44.099,22.095 45.564,22.879 47.136,22.879L56.365,22.879ZM11.743,32.274C11.743,30.977 10.693,29.925 9.394,29.925C8.095,29.925 7.046,30.977 7.046,32.274C7.046,33.57 8.095,34.622 9.394,34.622C10.693,34.622 11.743,33.57 11.743,32.274ZM42.274,41.668C42.274,35.184 37.016,29.925 30.531,29.925C24.047,29.925 18.789,35.184 18.789,41.668C18.789,48.152 24.047,53.411 30.531,53.411C37.016,53.411 42.274,48.152 42.274,41.668Z" style="fill:url(#_Linear1);fill-rule:nonzero;"/>
        <g transform="matrix(1,0,0,1,4.6989,4.6989)">
            <path d="M44.204,56.939C38.038,56.939 33.044,51.943 33.044,45.78C33.044,39.617 38.041,34.62 44.204,34.62C50.367,34.62 55.363,39.617 55.363,45.78C55.363,51.943 50.367,56.939 44.204,56.939ZM72.102,62.519C74.061,62.519 75.933,62.164 77.682,61.542L77.682,79.258C77.682,82.338 75.182,84.838 72.102,84.838L44.204,84.838C41.124,84.838 38.624,82.338 38.624,79.258L38.624,61.542C40.373,62.164 42.245,62.519 44.204,62.519C50.018,62.519 55.151,59.539 58.153,55.023C61.155,59.539 66.288,62.519 72.102,62.519ZM83.262,65.309L83.262,76.468L100.001,84.838L100.001,56.939L83.262,65.309ZM72.102,34.62C65.94,34.62 60.943,39.617 60.943,45.78C60.943,51.943 65.94,56.939 72.102,56.939C78.265,56.939 83.262,51.943 83.262,45.78C83.262,39.617 78.265,34.62 72.102,34.62Z" style="fill:url(#_Linear2);fill-rule:nonzero;"/>
        </g>
    </g>
    <defs>
        <linearGradient id="_Linear1" x1="0" y1="0" x2="1" y2="0" gradientUnits="userSpaceOnUse" gradientTransform="matrix(56.3654,0,0,56.3654,0,39.3193)"><stop offset="0" style="stop-color:rgb(255,165,82);stop-opacity:1"/><stop offset="1" style="stop-color:rgb(255,97,77);stop-opacity:1"/></linearGradient>
        <linearGradient id="_Linear2" x1="0" y1="0" x2="1" y2="0" gradientUnits="userSpaceOnUse" gradientTransform="matrix(66.9566,0,0,66.9566,33.0444,59.729)"><stop offset="0" style="stop-color:rgb(255,165,82);stop-opacity:1"/><stop offset="1" style="stop-color:rgb(255,97,77);stop-opacity:1"/></linearGradient>
    </defs>
</svg>
