<?xml version="1.0" encoding="UTF-8" standalone="no"?>
<!DOCTYPE svg PUBLIC "-//W3C//DTD SVG 1.1//EN" "http://www.w3.org/Graphics/SVG/1.1/DTD/svg11.dtd">
<svg width="100%" height="100%" viewBox="0 0 101 101" version="1.1" xmlns="http://www.w3.org/2000/svg" xmlns:xlink="http://www.w3.org/1999/xlink" xml:space="preserve" xmlns:serif="http://www.serif.com/" style="fill-rule:evenodd;clip-rule:evenodd;stroke-linejoin:round;stroke-miterlimit:2;">
    <g transform="matrix(0.984523,0,0,0.984523,-0.492261,-1.41461)">
        <path d="M61.055,22.452C61.055,14.097 54.272,7.313 45.916,7.313L15.639,7.313C7.283,7.313 0.5,14.097 0.5,22.452L0.5,52.73C0.5,61.085 7.283,67.869 15.639,67.869L45.916,67.869C54.272,67.869 61.055,61.085 61.055,52.73L61.055,22.452ZM31.883,50.519C30.722,51.75 29.055,52.523 27.203,52.523C25.158,52.521 23.241,51.564 22.049,49.953C19.957,48.888 18.645,46.786 18.645,44.493C18.647,41.476 20.879,38.967 23.829,38.431C21.125,39.096 19.12,41.514 19.117,44.395C19.124,46.684 20.41,48.786 22.445,49.835C21.682,48.796 21.27,47.54 21.269,46.252C21.273,42.858 24.05,40.109 27.479,40.105C28.12,40.105 28.732,40.21 29.312,40.39L29.312,32.927C28.704,32.841 28.092,32.797 27.479,32.794C27.412,32.794 27.346,32.796 27.28,32.799L27.28,31.309C26.636,31.224 25.989,31.18 25.34,31.178C17.408,31.178 10.954,37.218 10.954,44.643C10.954,49.196 13.386,53.228 17.096,55.666C14.612,53.179 13.23,49.903 13.233,46.499C13.233,45.352 13.386,44.238 13.676,43.175C13.421,44.195 13.286,45.261 13.286,46.355C13.286,49.906 14.708,53.138 17.024,55.55C19.375,57.15 22.156,58.004 25,57.998C28.079,57.998 30.928,57.022 33.236,55.373C30.883,57.306 27.864,58.47 24.576,58.47C21.678,58.47 18.992,57.563 16.785,56.025C19.359,58.773 22.963,60.334 26.729,60.33C34.226,60.33 40.324,54.28 40.324,46.845L40.324,31.956C43.324,34.093 46.919,35.239 50.601,35.233L50.601,27.907C50.211,27.906 49.822,27.884 49.435,27.84L49.435,27.164C47.225,26.706 45.217,25.554 43.707,23.875C43.644,23.835 43.581,23.795 43.519,23.754C41.945,21.929 41.077,19.597 41.077,17.184L39.098,17.184C39.166,17.541 39.252,17.892 39.357,18.236C39.251,17.892 39.163,17.541 39.094,17.184L33.885,17.184L33.885,16.719L39.308,16.719C39.192,16.104 39.133,15.478 39.132,14.852L31.727,14.852L31.714,44.346C31.59,47.649 28.854,50.299 25.501,50.299C24.495,50.299 23.504,50.055 22.614,49.588C23.784,51.207 25.664,52.167 27.661,52.167C29.29,52.167 30.773,51.541 31.883,50.519ZM27.159,33.045C27.064,33.048 26.969,33.052 26.875,33.056L26.875,38.452C26.97,38.477 27.065,38.505 27.159,38.535L27.159,33.045ZM38.916,30.599C41.757,32.413 45.065,33.38 48.448,33.375L48.448,32.842C45.035,32.666 41.732,31.54 38.916,29.582L38.916,30.599ZM43.894,23.512C45.329,25.118 47.231,26.236 49.332,26.707L49.434,26.73L49.434,25.09C47.444,25.093 45.495,24.517 43.825,23.433L43.894,23.512Z" style="fill:url(#_Linear1);"/>
        <g transform="matrix(1,0,0,1,2.58879,4.77915)">
            <path d="M100.499,47.952C100.499,39.597 93.716,32.814 85.361,32.814L55.083,32.814C46.727,32.814 39.944,39.597 39.944,47.952L39.944,78.23C39.944,86.586 46.727,93.369 55.083,93.369L85.361,93.369C93.716,93.369 100.499,86.586 100.499,78.23L100.499,47.952ZM60.848,40.491C58.428,40.601 56.773,40.985 55.329,41.547C53.834,42.127 52.567,42.906 51.301,44.17C50.035,45.433 49.259,46.701 48.678,48.198C48.116,49.643 47.732,51.296 47.622,53.717C47.51,56.141 47.484,56.916 47.484,63.091C47.484,69.266 47.51,70.042 47.622,72.466C47.732,74.887 48.116,76.54 48.678,77.985C49.259,79.48 50.036,80.75 51.301,82.013C52.566,83.276 53.832,84.054 55.329,84.636C56.776,85.198 58.428,85.582 60.848,85.692C63.274,85.802 64.048,85.83 70.223,85.83C76.398,85.83 77.173,85.804 79.597,85.692C82.018,85.582 83.671,85.198 85.116,84.636C86.611,84.054 87.879,83.277 89.144,82.013C90.41,80.75 91.185,79.48 91.767,77.985C92.329,76.54 92.715,74.886 92.823,72.466C92.933,70.04 92.959,69.266 92.959,63.091C92.959,56.916 92.933,56.141 92.823,53.717C92.713,51.296 92.329,49.642 91.767,48.198C91.185,46.703 90.408,45.435 89.144,44.17C87.881,42.904 86.611,42.127 85.118,41.547C83.671,40.985 82.018,40.599 79.599,40.491C77.174,40.38 76.399,40.353 70.225,40.353C64.051,40.353 63.275,40.379 60.849,40.491L60.848,40.491ZM61.036,81.6C58.82,81.499 57.614,81.13 56.814,80.818C55.752,80.404 54.995,79.912 54.198,79.117C53.402,78.322 52.909,77.565 52.497,76.503C52.185,75.703 51.816,74.498 51.715,72.281C51.605,69.884 51.583,69.164 51.583,63.092C51.583,57.02 51.607,56.302 51.715,53.903C51.816,51.686 52.188,50.483 52.497,49.68C52.911,48.619 53.403,47.861 54.198,47.065C54.994,46.268 55.75,45.775 56.814,45.364C57.614,45.052 58.82,44.683 61.036,44.582C63.433,44.471 64.153,44.45 70.223,44.45C76.292,44.45 77.013,44.473 79.412,44.582C81.629,44.683 82.831,45.055 83.634,45.364C84.696,45.776 85.453,46.27 86.25,47.065C87.046,47.86 87.537,48.619 87.95,49.681C88.263,50.481 88.632,51.686 88.733,53.903C88.843,56.302 88.865,57.02 88.865,63.092C88.865,69.164 88.843,69.882 88.733,72.281C88.632,74.498 88.261,75.703 87.95,76.504C87.537,77.565 87.045,78.323 86.25,79.117C85.454,79.912 84.696,80.405 83.634,80.818C82.834,81.13 81.629,81.5 79.412,81.6C77.015,81.71 76.295,81.733 70.223,81.733C64.15,81.733 63.432,81.71 61.036,81.6L61.036,81.6ZM58.547,63.091C58.547,69.54 63.774,74.767 70.223,74.767C76.671,74.767 81.899,69.54 81.899,63.091C81.899,56.643 76.671,51.416 70.223,51.416C63.774,51.416 58.547,56.643 58.547,63.091ZM62.644,63.091C62.644,58.906 66.037,55.511 70.223,55.511C74.409,55.511 77.803,58.906 77.803,63.091C77.803,67.277 74.409,70.671 70.223,70.671C66.037,70.671 62.644,67.277 62.644,63.091ZM79.632,50.953L79.632,50.954C79.632,52.45 80.864,53.682 82.361,53.682C83.858,53.682 85.089,52.45 85.089,50.954C85.089,49.457 83.858,48.226 82.362,48.225L82.361,48.225C80.865,48.226 79.634,49.457 79.632,50.953Z" style="fill:url(#_Linear2);"/>
        </g>
    </g>
    <defs>
        <linearGradient id="_Linear1" x1="0" y1="0" x2="1" y2="0" gradientUnits="userSpaceOnUse" gradientTransform="matrix(60.5554,0,0,60.5554,0.5,37.5911)"><stop offset="0" style="stop-color:rgb(255,165,82);stop-opacity:1"/><stop offset="1" style="stop-color:rgb(255,97,77);stop-opacity:1"/></linearGradient>
        <linearGradient id="_Linear2" x1="0" y1="0" x2="1" y2="0" gradientUnits="userSpaceOnUse" gradientTransform="matrix(60.555,0,0,60.555,39.944,63.0914)"><stop offset="0" style="stop-color:rgb(255,165,82);stop-opacity:1"/><stop offset="1" style="stop-color:rgb(255,97,77);stop-opacity:1"/></linearGradient>
    </defs>
</svg>
