<?xml version="1.0" encoding="UTF-8" standalone="no"?>
<!DOCTYPE svg PUBLIC "-//W3C//DTD SVG 1.1//EN" "http://www.w3.org/Graphics/SVG/1.1/DTD/svg11.dtd">
<svg width="100%" height="100%" viewBox="0 0 1502 407" version="1.1" xmlns="http://www.w3.org/2000/svg" xmlns:xlink="http://www.w3.org/1999/xlink" xml:space="preserve" xmlns:serif="http://www.serif.com/" style="fill-rule:evenodd;clip-rule:evenodd;stroke-linejoin:round;stroke-miterlimit:2;">
    <g transform="matrix(1,0,0,1,-456.925,-1571.99)">
        <g>
            <path d="M1958.55,1673.2L1958.55,1970.68L1849.06,1970.68L1849.06,1673.2L1958.55,1673.2ZM1606.73,1738.56C1666.1,1738.56 1714.76,1774.9 1714.76,1819.49C1714.76,1864.26 1666.1,1900.6 1606.73,1900.6C1547.37,1900.6 1498.72,1864.26 1498.72,1819.49C1498.72,1774.9 1547.37,1738.56 1606.73,1738.56ZM1635.6,1673.2L1545.9,1571.99L1679.71,1571.99L1802.98,1738.56C1814.99,1755.59 1824.07,1784.63 1825.37,1813.82C1829.76,1903.83 1726.92,1977.97 1606.73,1977.97C1486.54,1977.97 1388.1,1904.17 1388.1,1813.82C1388.09,1723.32 1476.32,1652.59 1635.6,1673.2ZM1121.13,1839.79C1121.13,1880.16 1158.59,1900.6 1189.4,1900.6C1220.22,1900.6 1261.27,1877.89 1261.27,1839.79L1261.27,1673.2L1364.9,1673.2L1364.9,1839.79C1364.9,1955.26 1262.72,1978.45 1189.4,1978.45C1116.26,1978.45 1011.97,1955.26 1011.97,1839.79L1011.97,1673.2L1121.13,1673.2L1121.13,1839.79ZM792.505,1571.99L1044.07,1970.66L918.519,1970.66L874.24,1900.6L630.966,1900.6L585.053,1970.66L456.925,1970.66L691.133,1610.26L655.635,1571.99L792.505,1571.99ZM829.494,1828.9L677.19,1828.9L754.399,1710.34L829.494,1828.9Z" style="fill:white;"/>
        </g>
    </g>
</svg>
