<?xml version="1.0" standalone="no"?>
<!DOCTYPE svg PUBLIC "-//W3C//DTD SVG 20010904//EN"
 "http://www.w3.org/TR/2001/REC-SVG-20010904/DTD/svg10.dtd">
<svg version="1.0" xmlns="http://www.w3.org/2000/svg"
 width="948.000000pt" height="948.000000pt" viewBox="0 0 948.000000 948.000000"
 preserveAspectRatio="xMidYMid meet">
<metadata>
Created by potrace 1.14, written by Peter Selinger 2001-2017
</metadata>
<g transform="translate(0.000000,948.000000) scale(0.100000,-0.100000)"
fill="#000000" stroke="none">
<path d="M4058 9435 c-2 -1 -23 -5 -48 -9 -25 -3 -61 -8 -80 -12 -44 -7 -350
-72 -370 -79 -8 -2 -49 -14 -90 -25 -41 -11 -82 -23 -90 -25 -8 -3 -35 -10
-60 -17 -25 -7 -48 -17 -52 -23 -4 -5 -8 -7 -8 -3 0 7 -124 -33 -175 -57 -16
-7 -33 -11 -37 -9 -4 3 -8 0 -8 -7 0 -7 -3 -10 -6 -6 -5 5 -114 -39 -156 -63
-10 -5 -22 -10 -28 -10 -15 0 -299 -138 -331 -161 -14 -10 -29 -16 -32 -12 -4
3 -9 -2 -13 -11 -3 -9 -9 -14 -14 -11 -4 2 -40 -16 -79 -40 -40 -25 -75 -45
-79 -45 -3 0 -20 -11 -38 -25 -18 -14 -37 -25 -42 -25 -5 0 -22 -11 -37 -24
-16 -14 -32 -23 -37 -20 -4 3 -8 1 -8 -3 0 -5 -13 -17 -29 -26 -31 -18 -292
-206 -301 -217 -3 -3 -27 -24 -55 -45 -27 -22 -55 -44 -61 -50 -6 -5 -40 -35
-75 -65 -111 -96 -242 -223 -361 -351 -57 -62 -149 -166 -166 -189 -9 -12 -25
-31 -34 -41 -10 -11 -18 -21 -18 -23 0 -5 -33 -45 -62 -77 -10 -10 -18 -22
-18 -25 0 -5 -57 -82 -70 -94 -7 -7 -182 -270 -196 -295 -6 -11 -17 -31 -25
-45 -8 -14 -17 -27 -20 -30 -3 -3 -37 -63 -74 -135 -38 -71 -74 -133 -79 -137
-6 -4 -8 -8 -4 -8 4 0 -13 -41 -38 -90 -24 -50 -44 -92 -44 -94 0 -2 -10 -25
-22 -52 -12 -27 -23 -51 -23 -54 -1 -3 -7 -16 -12 -30 -55 -128 -173 -477
-187 -552 -2 -15 -7 -31 -10 -36 -3 -5 -7 -19 -10 -33 -2 -13 -19 -84 -36
-158 -17 -73 -29 -136 -26 -139 3 -3 1 -10 -4 -17 -5 -6 -11 -31 -14 -56 -2
-24 -5 -44 -6 -44 -1 0 -3 -11 -5 -25 -10 -79 -16 -128 -29 -245 -16 -146 -21
-253 -20 -500 0 -154 3 -314 7 -355 18 -183 18 -184 32 -287 3 -18 7 -48 9
-65 2 -18 7 -44 10 -58 3 -14 8 -41 10 -60 3 -19 15 -80 26 -135 12 -55 23
-110 26 -122 2 -12 9 -34 14 -48 5 -14 9 -29 9 -33 -1 -4 0 -9 1 -12 1 -3 3
-12 5 -20 24 -95 119 -396 142 -450 3 -8 7 -17 7 -20 1 -7 33 -85 51 -125 8
-16 25 -57 39 -90 13 -33 31 -73 40 -90 9 -16 16 -33 16 -38 0 -4 11 -25 25
-47 14 -22 23 -40 19 -40 -3 0 8 -24 24 -52 16 -29 44 -80 62 -113 48 -89 101
-178 118 -197 8 -10 12 -18 9 -18 -11 0 242 -366 288 -417 5 -6 21 -26 35 -45
14 -18 35 -43 48 -56 12 -13 22 -25 22 -29 0 -21 377 -410 509 -523 35 -30 69
-60 75 -65 9 -9 134 -109 171 -138 88 -68 157 -117 164 -117 5 0 11 -3 13 -8
7 -17 348 -232 368 -232 6 0 10 -3 10 -8 0 -4 15 -13 32 -21 18 -8 35 -17 38
-20 3 -3 33 -19 68 -35 34 -16 62 -34 62 -40 0 -5 3 -7 6 -4 3 4 46 -14 95
-38 49 -24 91 -44 94 -44 2 0 30 -12 62 -26 80 -36 104 -46 213 -86 165 -61
195 -72 205 -74 6 -1 37 -10 70 -20 33 -10 65 -19 70 -20 6 -2 60 -16 121 -33
109 -30 150 -39 189 -46 11 -2 20 -4 20 -5 0 -1 9 -3 20 -5 28 -4 94 -16 119
-21 11 -3 39 -7 61 -10 22 -3 60 -10 85 -14 24 -5 47 -7 50 -5 3 2 5 2112 5
4691 0 4381 -1 4687 -17 4690 -9 1 -18 1 -20 -1z"/>
<path d="M5380 9368 c1 -126 2 -372 1 -388 0 -8 0 -80 0 -160 1 -80 1 -152 0
-160 0 -8 0 -80 0 -160 1 -80 1 -152 0 -160 0 -8 0 -80 0 -160 1 -80 1 -152 0
-160 0 -8 0 -80 0 -160 1 -80 1 -152 0 -160 0 -8 0 -80 0 -160 1 -80 1 -152 0
-160 0 -8 0 -80 0 -160 1 -80 1 -152 0 -160 0 -8 0 -80 0 -160 1 -80 1 -152 0
-160 0 -8 0 -80 0 -160 1 -80 1 -152 0 -160 0 -8 0 -80 0 -160 1 -80 1 -152 0
-160 0 -8 0 -80 0 -160 1 -80 1 -152 0 -160 0 -8 0 -80 0 -160 1 -80 1 -152 0
-160 0 -8 0 -80 0 -160 1 -80 1 -152 0 -160 0 -8 0 -80 0 -160 1 -80 1 -151 0
-157 -2 -29 -2 -39 2 -58 4 -20 17 -20 2028 -20 1113 0 2033 1 2045 3 19 3 20
9 18 107 -2 98 -6 157 -21 333 -3 42 -7 94 -7 114 -1 21 -4 38 -7 38 -3 0 -6
6 -6 13 0 18 -13 121 -18 148 -3 13 -7 40 -10 59 -3 19 -7 44 -9 55 -2 11 -11
56 -21 100 -9 44 -23 107 -32 140 -18 70 -17 69 -28 118 -4 20 -11 40 -16 43
-5 3 -7 9 -4 13 2 5 -6 41 -20 80 -13 39 -21 71 -18 71 3 0 -1 7 -8 17 -8 9
-13 17 -11 17 2 1 1 8 -2 16 -2 8 -10 33 -17 55 -6 22 -15 45 -20 50 -4 6 -10
22 -13 35 -5 26 -62 175 -74 194 -3 6 -7 16 -8 21 -1 6 -12 33 -25 60 -13 28
-22 53 -21 57 1 3 -5 12 -13 18 -8 7 -15 18 -15 25 0 35 -287 552 -312 563 -5
2 -8 8 -8 13 0 8 -75 124 -90 139 -3 3 -21 28 -39 55 -19 28 -53 73 -75 101
-23 28 -50 63 -61 78 -11 15 -29 38 -40 50 -11 12 -40 47 -65 76 -117 138
-320 346 -450 460 -40 36 -84 75 -97 88 -13 12 -26 22 -29 22 -3 0 -11 6 -18
13 -7 6 -27 23 -45 37 -19 14 -41 33 -49 43 -9 9 -22 17 -29 17 -7 0 -13 4
-13 8 0 5 -21 23 -47 42 -142 100 -214 150 -219 150 -3 0 -10 5 -17 10 -25 21
-116 79 -163 105 -27 14 -62 35 -79 46 -16 10 -55 31 -85 46 -30 16 -56 31
-58 36 -2 4 -7 7 -11 7 -5 0 -78 34 -164 75 -179 86 -498 214 -577 230 -8 2
-16 4 -17 5 -2 2 -6 3 -10 4 -5 1 -30 9 -58 18 -27 10 -95 29 -150 43 -103 28
-120 31 -169 41 -16 2 -32 7 -36 9 -3 2 -29 7 -56 11 -27 3 -53 9 -58 11 -4 3
-20 7 -35 9 -14 2 -37 5 -51 8 -14 2 -45 7 -69 10 -23 3 -56 8 -73 11 l-29 5
1 -72z"/>
</g>
</svg>
